<svg width="49" height="69" viewBox="0 0 49 69" fill="none" xmlns="http://www.w3.org/2000/svg">
<path d="M38.7123 41.8676C38.7123 48.0265 38.7157 54.1853 38.709 60.3442C38.709 61.1898 38.6854 62.0355 38.6315 62.8778C38.5203 64.6331 37.6241 65.9505 36.2966 67.0455C35.2488 67.908 34.009 67.9989 32.759 68.0158C29.0327 68.0596 25.303 68.0865 21.5767 68.0865C16.0209 68.0832 10.4618 68.0461 4.906 68.036C4.48822 68.036 4.10413 67.9888 3.75037 67.7597C3.14055 67.3655 2.47008 67.0387 1.93775 66.5603C0.731586 65.4754 0.101551 64.0941 0.0914439 62.4465C0.0644905 57.8746 0.0105829 53.2992 0.00384458 48.7272C-0.00626295 40.8434 0.0038452 32.9595 0.0307986 25.0756C0.037537 23.5258 0.131873 21.976 0.219472 20.4262C0.300332 18.9875 0.862983 17.7173 1.81309 16.6594C2.9047 15.4499 4.05023 14.2842 5.21933 13.1454C8.22127 10.2209 11.2367 7.30995 14.2757 4.42257C14.9596 3.77232 15.6907 3.1187 16.5128 2.6807C18.7567 1.49138 21.0039 1.69353 23.0591 3.14565C23.7532 3.63418 24.2586 3.6645 25.0031 3.32758C27.8434 2.04056 30.7981 1.08034 33.8641 0.473891C36.5662 -0.061808 39.2885 -0.142668 42.0141 0.227941C43.0855 0.376185 44.0996 0.750164 45.043 1.28586C47.927 2.92665 48.9681 5.86121 47.7653 8.95748C47.051 10.7971 45.8516 12.3031 44.4702 13.6743C43.1596 14.9748 41.6907 16.0833 40.1577 17.1075C39.5715 17.4983 38.9886 17.8993 38.4192 18.3171C38.3181 18.3912 38.2238 18.6001 38.2575 18.7079C38.7528 20.4026 38.6921 22.1444 38.709 23.8796C38.7393 26.8781 38.7426 29.8767 38.746 32.8753C38.7528 35.8738 38.746 38.8724 38.746 41.871C38.7359 41.8676 38.7224 41.8676 38.7123 41.8676ZM32.6074 12.3165C32.4389 12.4109 32.3513 12.4682 32.257 12.512C29.6796 13.6777 27.028 14.6177 24.2653 15.2511C23.5443 15.4162 23.0524 15.3185 22.4998 14.7862C21.3644 13.6912 19.9426 13.3105 18.3928 13.6036C15.7547 14.0988 14.1544 16.2686 14.3869 18.9639C14.552 20.8642 15.8828 22.5016 17.7358 23.0743C19.6596 23.6707 21.7687 23.0777 22.9614 21.5953C23.6925 20.689 24.1373 19.6614 24.1609 18.4788C24.1676 18.2059 24.2619 18.0947 24.5517 18.0273C25.9364 17.7173 27.338 17.4377 28.6924 17.0166C32.6781 15.7733 36.3809 13.954 39.6591 11.3361C40.8315 10.3995 41.9164 9.36852 42.6812 8.06465C42.9406 7.62329 43.1057 7.11791 43.2472 6.62601C43.3584 6.23855 43.2034 5.88142 42.816 5.69949C42.442 5.52092 42.0613 5.33898 41.6671 5.22443C39.8814 4.71232 38.0621 4.83024 36.2596 5.06271C34.1538 5.33562 32.1188 5.92522 30.1074 6.58221C29.3325 6.8349 28.5711 7.13476 27.7591 7.42788C29.3898 9.07203 30.9767 10.6724 32.6074 12.3165ZM25.8825 43.35C23.2107 43.3265 21.0006 45.5939 20.9365 48.3533C20.8658 51.3889 23.3893 53.5014 26.0072 53.5654C28.7564 53.6294 31.1654 51.0318 31.1687 48.5083C31.1721 46.1532 29.4168 43.3062 25.8825 43.35ZM12.5641 44.8628C15.091 45.0313 17.4596 42.7908 17.6381 40.0449C17.7931 37.673 15.8895 34.8125 12.7798 34.7047C9.89238 34.6037 7.54743 36.8475 7.4093 39.5058C7.28801 41.8373 8.90184 44.8358 12.5641 44.8628ZM27.2639 36.2108C27.274 35.2303 26.4654 34.607 25.714 34.8934C25.394 35.0147 25.0806 35.2438 24.8583 35.5066C22.9277 37.7842 21.0073 40.0718 19.1071 42.373C16.816 45.1492 14.5418 47.9389 12.2778 50.7319C11.9442 51.1429 11.6713 51.6079 11.4186 52.0728C11.3243 52.2447 11.2838 52.5176 11.3479 52.6961C11.6477 53.5149 12.7326 53.7541 13.3593 53.1544C13.585 52.9387 13.7838 52.6961 13.9859 52.4569C16.8935 48.9766 19.8045 45.4962 22.702 42.0057C24.1069 40.3144 25.4917 38.6062 26.8697 36.8947C27.0684 36.6521 27.1864 36.3489 27.2639 36.2108Z" fill="#60A401"/>
<path d="M28.0792 48.4814C28.0826 49.6101 27.183 50.5198 26.0611 50.5231C24.892 50.5265 23.9823 49.6033 23.9823 48.4174C23.9823 47.2752 24.8987 46.3251 26.0072 46.3184C27.1628 46.3117 28.0758 47.2618 28.0792 48.4814Z" fill="white"/>
<path d="M12.463 37.7271C13.6793 37.7304 14.5991 38.603 14.6024 39.7553C14.6058 40.9143 13.6658 41.861 12.5203 41.861C11.3512 41.861 10.4516 40.9446 10.4516 39.7553C10.4482 38.6165 11.3343 37.7237 12.463 37.7271Z" fill="white"/>
</svg>
