<svg width="314" height="90" viewBox="0 0 314 90" fill="none" xmlns="http://www.w3.org/2000/svg">
<path d="M281.24 0H-1V90H314L281.24 0Z" fill="white"/>
<path d="M73.7496 65.241H72.9792V74.7825H73.7496V65.241Z" fill="black"/>
<path d="M89.784 77.705H85.4664V56.9308H77.2968V77.705H70.0512V62.1627H74.0592V56.4685H76.8336V47.1139L65.4264 54.2119V77.705H59.2608V36.1902L47.544 43.5924V59.7001H54.1728V77.705H47.0808V60.1624H37.212V77.705H33.588V77.2426H36.7488V59.7001H47.0784V43.3385L59.7192 35.3517V77.2402H64.9608V53.9531L77.2944 46.2802V56.4685H85.464V35.8788L77.2248 28.8502L74.52 31.3943V46.2012L68.9712 50.0628V35.9794L74.0592 31.1955V15.0855L56.1744 25.1348V33.924H55.7112V24.8665L74.52 14.2949V30.7595L77.2104 28.2298L85.9272 35.6656V56.4685H89.7816V77.705H89.784ZM85.9296 77.2426H89.3208V56.9308H85.9296V77.2426ZM70.512 77.2426H76.8336V56.9308H74.52V62.625H70.512V77.2426ZM47.5416 77.2426H53.7072V60.1624H47.5416V77.2426ZM69.4344 36.1806V49.1812L74.0592 45.964V31.8327L69.4344 36.1806Z" fill="#8CC63B"/>
<path d="M89.904 77.8247H85.3464V57.0506H77.4168V77.8247H69.9312V62.0429H73.9392V56.3487H76.7136V47.3295L65.5464 54.2789V77.8247H59.1408V36.4082L47.664 43.6595V59.5803H54.2928V77.8247H46.9608V60.2822H37.332V77.8247H33.468V77.1228H36.6288V59.5803H46.9584V43.2738L47.0136 43.2379L59.8392 35.1362V77.1228H64.8408V53.8885L77.4144 46.0646V56.3487H85.344V35.9339L77.2272 29.0108L74.6376 31.447V46.2659L68.8464 50.2952V35.9315L73.9344 31.1452V15.2915L56.2944 25.2066V34.0462H55.5912V24.7946L55.6512 24.7611L74.64 14.0913V30.484L77.2056 28.0693L86.0472 35.6105V56.3487H89.9016V77.8247H89.904ZM85.5864 77.5852H89.664V56.5882H85.8096V35.7207L77.2152 28.3903L74.4 31.0374V14.5009L55.8312 24.9359V33.8066H56.0544V25.0653L56.1144 25.0318L74.1768 14.8818V31.2482L69.0888 36.0345V49.8376L74.4 46.1437V31.3464L77.2224 28.6921L77.304 28.7616L85.5864 35.8261V56.5906H77.1768V46.5006L65.0832 54.025V77.3648H59.6016V35.5697L47.2008 43.4032V59.8174H36.8712V77.36H33.7104V77.5828H37.0944V60.0402H47.2008V77.5828H54.0528V59.8174H47.424V43.5253L47.4792 43.4894L59.3808 35.9722V77.5828H65.3064V54.1448L76.9536 46.8959V56.5882H74.1792V62.2825H70.1712V77.5852H77.1768V56.811H85.5864V77.5852ZM89.4408 77.3624H85.8096V56.811H89.4408V77.3624ZM86.0496 77.1228H89.2008V57.0506H86.0496V77.1228ZM76.9536 77.3624H70.392V62.5052H74.4V56.811H76.9536V77.3624ZM70.632 77.1228H76.7136V57.0506H74.64V62.7448H70.632V77.1228ZM53.8296 77.3624H47.424V60.0426H53.8296V77.3624ZM47.6616 77.1228H53.5872V60.2822H47.6616V77.1228ZM69.3144 49.4088V36.1279L74.1792 31.5524V46.0239L69.3144 49.4088ZM69.5544 36.2309V48.9489L73.9392 45.8993V32.1058L69.5544 36.2309Z" fill="#8CC63B"/>
<path d="M51.192 48.4506H50.7288V57.2207H51.192V48.4506Z" fill="black"/>
<path d="M55.4928 46.0048H55.0296V54.7748H55.4928V46.0048Z" fill="black"/>
<path d="M42.5328 65.6483H42.0696V74.4183H42.5328V65.6483Z" fill="black"/>
<path d="M81.4128 61.3362H80.9496V70.1063H81.4128V61.3362Z" fill="black"/>
<path d="M81.9216 36.3101H81.4584V53.237H81.9216V36.3101Z" fill="black"/>
<path d="M64.8288 26.4619H64.3656V49.2363H64.8288V26.4619Z" fill="black"/>
<path d="M73.7832 65.241H73.0128V74.7825H73.7832V65.241Z" fill="black"/>
<path d="M115.042 63.8013V46.757H109.397V63.8013H107.026V28.1987H109.397V44.1075H115.042V28.1987H117.413V63.8037H115.042V63.8013Z" fill="#8CC63B"/>
<path d="M124.054 63.8013H121.682V28.1987H124.054V63.8013Z" fill="#8CC63B"/>
<path d="M131.17 60.5361C131.455 60.9793 132.007 61.1997 132.83 61.1997H134.918C135.518 61.1997 135.922 60.9865 136.128 60.5601C136.334 60.1337 136.438 59.4941 136.438 58.6436V47.9883H133.591V45.3364H138.809V59.966C138.809 60.9458 138.54 61.8129 138.002 62.5699C137.465 63.3269 136.69 63.739 135.679 63.8012H131.551C130.982 63.7701 130.49 63.6192 130.08 63.3509C129.67 63.0826 129.336 62.7592 129.084 62.3807C128.83 62.0022 128.65 61.5758 128.539 61.1015C128.429 60.6271 128.374 60.1385 128.374 59.633V32.3645C128.374 31.2913 128.674 30.3283 129.274 29.4755C129.874 28.6227 130.68 28.1963 131.693 28.1963H135.487C136.498 28.2921 137.306 28.7257 137.906 29.4971C138.506 30.2708 138.809 31.1141 138.809 32.0292V40.1716H136.438V33.3539C136.438 32.5011 136.351 31.8615 136.176 31.4351C136.001 31.0087 135.614 30.7955 135.014 30.7955H132.074C131.695 30.7955 131.378 31.0254 131.126 31.483C130.872 31.9405 130.747 32.549 130.747 33.306V58.6365C130.742 59.4629 130.884 60.0929 131.17 60.5361Z" fill="#8CC63B"/>
<path d="M151.092 63.8013V46.757H145.447V63.8013H143.076V28.1987H145.447V44.1075H151.092V28.1987H153.463V63.8037H151.092V63.8013Z" fill="#8CC63B"/>
<path d="M178.176 63.8013V46.757H172.531V63.8013H170.16V28.1987H172.531V44.1075H178.176V28.1987H180.547V63.8037H178.176V63.8013Z" fill="#4C4C4C"/>
<path d="M195.252 59.8727C195.252 60.8189 194.998 61.6957 194.494 62.5006C193.987 63.3055 193.229 63.7391 192.216 63.8037H187.994C187.426 63.7726 186.934 63.6217 186.523 63.3534C186.113 63.0851 185.779 62.7617 185.527 62.3832C185.273 62.0047 185.093 61.5783 184.982 61.104C184.872 60.6296 184.817 60.1409 184.817 59.6355V32.3646C184.817 31.828 184.879 31.3082 185.006 30.8027C185.131 30.2973 185.33 29.8565 185.599 29.478C185.868 29.0995 186.209 28.7905 186.619 28.5557C187.03 28.3186 187.536 28.2012 188.136 28.2012H191.93C192.941 28.297 193.75 28.7306 194.35 29.502C194.95 30.2757 195.25 31.1189 195.25 32.034V59.8727H195.252ZM187.519 60.5362C187.74 60.9794 188.261 61.1998 189.084 61.1998H191.455C192.055 61.1998 192.444 60.9866 192.617 60.5602C192.79 60.1338 192.878 59.4942 192.878 58.6437V33.3588C192.878 32.506 192.792 31.8664 192.617 31.4399C192.442 31.0135 192.055 30.8003 191.455 30.8003H188.515C188.136 30.8003 187.819 31.0303 187.567 31.4879C187.313 31.9454 187.188 32.5539 187.188 33.3109V58.6413C187.188 59.463 187.298 60.093 187.519 60.5362Z" fill="#4C4C4C"/>
<path d="M199.519 28.1987H205.164C205.481 28.1987 205.898 28.4047 206.422 28.8144C206.942 29.224 207.456 29.8397 207.962 30.6613C208.469 31.483 208.903 32.5155 209.266 33.7636C209.628 35.0117 209.81 36.4849 209.81 38.1905C209.81 39.9584 209.669 41.482 209.383 42.7588C209.098 44.0381 208.726 45.1017 208.27 45.9545C207.811 46.8073 207.305 47.4397 206.753 47.8494C206.198 48.259 205.654 48.465 205.116 48.465H201.89V63.8061H199.519V28.1987ZM201.893 30.8027V45.8587H204.55C205.118 45.8587 205.577 45.6622 205.925 45.267C206.273 44.8717 206.549 44.3591 206.755 43.729C206.962 43.099 207.11 42.3971 207.206 41.6234C207.3 40.8496 207.379 40.0998 207.444 39.3739C207.444 39.1847 207.444 39.0122 207.444 38.8541C207.444 38.6649 207.461 38.4756 207.492 38.2864C207.427 37.4335 207.341 36.5664 207.23 35.6824C207.12 34.7984 206.938 33.9935 206.686 33.2677C206.431 32.5418 206.1 31.9502 205.69 31.4926C205.279 31.0351 204.773 30.8051 204.173 30.8051H201.893V30.8027Z" fill="#4C4C4C"/>
<path d="M214.082 28.1987H224.566V30.8027H216.454V44.153H223.663V46.8049H216.454V61.1973H224.566V63.8013H214.082V28.1987Z" fill="#4C4C4C"/>
<path d="M231.252 42.7325C231.252 43.1756 231.3 43.5374 231.394 43.8224C231.49 44.1075 231.821 44.2488 232.39 44.2488H236.518C236.738 44.2488 237.007 44.3207 237.324 44.462C237.641 44.6034 237.948 44.8094 238.248 45.0777C238.548 45.346 238.8 45.6622 239.006 46.0239C239.213 46.3881 239.314 46.7737 239.314 47.1834V59.6354C239.314 60.6775 239.059 61.6093 238.555 62.4286C238.049 63.2503 237.194 63.7078 235.994 63.8013H232.152C231.173 63.7054 230.374 63.2719 229.757 62.4981C229.14 61.7243 228.833 60.8811 228.833 59.966V51.8235H231.204V58.6892C231.204 59.542 231.298 60.1744 231.49 60.5841C231.679 60.9937 232.075 61.1997 232.675 61.1997H235.615C236.122 61.1997 236.47 60.9721 236.659 60.5122C236.849 60.0546 236.945 59.4462 236.945 58.6892V48.3213C236.945 47.8158 236.842 47.4445 236.638 47.2097C236.431 46.9726 236.014 46.8552 235.38 46.8552H231.823C231.506 46.8552 231.175 46.8001 230.827 46.6899C230.479 46.5797 230.162 46.4048 229.879 46.1701C229.594 45.9329 229.358 45.6191 229.169 45.2238C228.979 44.8286 228.883 44.3638 228.883 43.8272V32.3693C228.883 31.3273 229.128 30.3978 229.618 29.5761C230.107 28.7569 230.952 28.2969 232.154 28.2035H235.997C237.01 28.2993 237.816 28.7329 238.416 29.5043C239.016 30.278 239.316 31.1213 239.316 32.0364V40.1788H236.945V33.3611C236.945 32.5083 236.858 31.8687 236.683 31.4423C236.508 31.0159 236.122 30.8027 235.522 30.8027H232.582C232.044 30.8027 231.689 31.0326 231.514 31.4902C231.338 31.9477 231.252 32.5562 231.252 33.3132V42.7325Z" fill="#4C4C4C"/>
</svg>
