<svg width="58" height="79" viewBox="0 0 58 79" fill="none" xmlns="http://www.w3.org/2000/svg">
<mask id="path-1-outside-1_39_341" maskUnits="userSpaceOnUse" x="0" y="0" width="58" height="79" fill="black">
<rect fill="white" width="58" height="79"/>
<path d="M36.9419 43.2085C40.0042 41.7455 42.598 39.4576 44.432 36.6019H49.1627C50.2068 36.5405 51.1843 36.0688 51.8821 35.2896C52.5798 34.5103 52.9412 33.4868 52.8873 32.4423V22.6683C52.889 22.153 52.7969 21.6417 52.6155 21.1594V21.1322C51.2284 16.3476 48.8163 11.9224 45.5467 8.16381L45.37 7.95991C43.2281 5.58639 40.5671 3.73951 37.5944 2.56319C34.5038 1.37001 31.1942 0.849818 27.8866 1.03735C24.579 1.22488 21.3495 2.11582 18.4136 3.65069C16.3808 4.77883 14.5482 6.23481 12.9897 7.95991L12.813 8.16381C9.54341 11.9224 7.13131 16.3476 5.74422 21.1322V21.1594C5.5628 21.6417 5.47067 22.153 5.47234 22.6683V32.4423C5.41851 33.4868 5.77986 34.5103 6.4776 35.2896C7.17534 36.0688 8.15287 36.5405 9.19703 36.6019H13.9277C15.7617 39.4576 18.3555 41.7455 21.4178 43.2085C15.5725 44.7655 10.4038 48.2067 6.71248 52.999C3.02117 57.7913 1.01332 63.6672 1 69.7163V77.1385C1 77.499 1.14322 77.8448 1.39815 78.0997C1.65308 78.3547 1.99885 78.4979 2.35938 78.4979H56.0003C56.3608 78.4979 56.7066 78.3547 56.9615 78.0997C57.2165 77.8448 57.3597 77.499 57.3597 77.1385V69.7163C57.3464 63.6672 55.3385 57.7913 51.6472 52.999C47.9559 48.2067 42.7872 44.7655 36.9419 43.2085ZM50.1686 22.6683V32.4423C50.1686 33.2035 49.6928 33.8832 49.1627 33.8832H45.8866C46.1177 33.3123 46.3352 32.7277 46.5119 32.1296C46.5119 32.116 46.5119 32.116 46.5255 32.1024C47.6031 28.5502 47.5557 24.7516 46.3895 21.2274H49.1627C49.6928 21.2274 50.1686 21.9071 50.1686 22.6683ZM9.19703 33.8832C8.66687 33.8832 8.19109 33.2035 8.19109 32.4423V22.6683C8.19109 21.9071 8.66687 21.2274 9.19703 21.2274H11.9702C10.6015 25.368 10.7802 29.8643 12.4731 33.8832H9.19703ZM9.55047 18.5087C10.835 15.3933 12.6214 12.5095 14.8384 9.97178L15.0016 9.79506C16.3538 8.28475 17.9536 7.01596 19.7322 6.04319C22.3201 4.71041 25.1595 3.93693 28.0659 3.77299C30.9723 3.60905 33.8806 4.05833 36.602 5.09163C39.1891 6.11288 41.5024 7.72333 43.3581 9.79506L43.5212 9.97178C45.7383 12.5095 47.5246 15.3933 48.8092 18.5087H45.2477C43.7224 15.5634 41.417 13.0941 38.5832 11.3704C35.7495 9.64679 32.4966 8.73516 29.1798 8.73516C25.8631 8.73516 22.6101 9.64679 19.7764 11.3704C16.9427 13.0941 14.6373 15.5634 13.112 18.5087H9.55047ZM13.7781 26.8552C13.7756 24.6874 14.2307 22.5435 15.1137 20.5637C15.9967 18.5839 17.2877 16.8128 18.9022 15.3662C20.5168 13.9196 22.4185 12.8302 24.483 12.1691C26.5476 11.508 28.7284 11.2902 30.8829 11.5299C33.0374 11.7697 35.1171 12.4615 36.9858 13.5602C38.8545 14.6589 40.4703 16.1397 41.7274 17.9057C42.9845 19.6718 43.8546 21.6834 44.2809 23.8088C44.7071 25.9343 44.6799 28.1258 44.2009 30.2401H39.6606C39.3817 29.4458 38.8631 28.7577 38.1765 28.2707C37.4899 27.7837 36.669 27.5219 35.8272 27.5213H31.7491C30.6675 27.5213 29.6302 27.951 28.8654 28.7158C28.1006 29.4806 27.6709 30.5179 27.6709 31.5994C27.6709 32.681 28.1006 33.7183 28.8654 34.4831C29.6302 35.2479 30.6675 35.6776 31.7491 35.6776H35.8272C36.669 35.677 37.4899 35.4151 38.1765 34.9282C38.8631 34.4412 39.3817 33.7531 39.6606 32.9588H43.3173C41.9129 36.2118 39.4297 38.881 36.2864 40.5163C33.1431 42.1517 29.5321 42.6532 26.0622 41.9362C22.5923 41.2192 19.4757 39.3276 17.238 36.5804C15.0003 33.8332 13.7783 30.3984 13.7781 26.8552ZM37.1866 31.5858V31.613C37.1858 31.7907 37.1501 31.9665 37.0814 32.1303C37.0126 32.2942 36.9123 32.4429 36.786 32.5679C36.6597 32.6929 36.51 32.7917 36.3455 32.8588C36.181 32.9259 36.0049 32.9599 35.8272 32.9588H31.7491C31.3885 32.9588 31.0428 32.8156 30.7878 32.5607C30.5329 32.3057 30.3897 31.96 30.3897 31.5994C30.3897 31.2389 30.5329 30.8931 30.7878 30.6382C31.0428 30.3833 31.3885 30.2401 31.7491 30.2401H35.8272C36.0049 30.239 36.181 30.273 36.3455 30.3401C36.51 30.4071 36.6597 30.506 36.786 30.631C36.9123 30.756 37.0126 30.9047 37.0814 31.0685C37.1501 31.2324 37.1858 31.4082 37.1866 31.5858ZM54.6409 75.7791H3.71875V69.7163C3.72882 63.1578 6.33864 56.8708 10.9762 52.2332C15.6138 47.5956 21.9008 44.9858 28.4594 44.9757H29.9003C36.4588 44.9858 42.7459 47.5956 47.3835 52.2332C52.021 56.8708 54.6309 63.1578 54.6409 69.7163V75.7791Z"/>
</mask>
<path d="M36.9419 43.2085C40.0042 41.7455 42.598 39.4576 44.432 36.6019H49.1627C50.2068 36.5405 51.1843 36.0688 51.8821 35.2896C52.5798 34.5103 52.9412 33.4868 52.8873 32.4423V22.6683C52.889 22.153 52.7969 21.6417 52.6155 21.1594V21.1322C51.2284 16.3476 48.8163 11.9224 45.5467 8.16381L45.37 7.95991C43.2281 5.58639 40.5671 3.73951 37.5944 2.56319C34.5038 1.37001 31.1942 0.849818 27.8866 1.03735C24.579 1.22488 21.3495 2.11582 18.4136 3.65069C16.3808 4.77883 14.5482 6.23481 12.9897 7.95991L12.813 8.16381C9.54341 11.9224 7.13131 16.3476 5.74422 21.1322V21.1594C5.5628 21.6417 5.47067 22.153 5.47234 22.6683V32.4423C5.41851 33.4868 5.77986 34.5103 6.4776 35.2896C7.17534 36.0688 8.15287 36.5405 9.19703 36.6019H13.9277C15.7617 39.4576 18.3555 41.7455 21.4178 43.2085C15.5725 44.7655 10.4038 48.2067 6.71248 52.999C3.02117 57.7913 1.01332 63.6672 1 69.7163V77.1385C1 77.499 1.14322 77.8448 1.39815 78.0997C1.65308 78.3547 1.99885 78.4979 2.35938 78.4979H56.0003C56.3608 78.4979 56.7066 78.3547 56.9615 78.0997C57.2165 77.8448 57.3597 77.499 57.3597 77.1385V69.7163C57.3464 63.6672 55.3385 57.7913 51.6472 52.999C47.9559 48.2067 42.7872 44.7655 36.9419 43.2085ZM50.1686 22.6683V32.4423C50.1686 33.2035 49.6928 33.8832 49.1627 33.8832H45.8866C46.1177 33.3123 46.3352 32.7277 46.5119 32.1296C46.5119 32.116 46.5119 32.116 46.5255 32.1024C47.6031 28.5502 47.5557 24.7516 46.3895 21.2274H49.1627C49.6928 21.2274 50.1686 21.9071 50.1686 22.6683ZM9.19703 33.8832C8.66687 33.8832 8.19109 33.2035 8.19109 32.4423V22.6683C8.19109 21.9071 8.66687 21.2274 9.19703 21.2274H11.9702C10.6015 25.368 10.7802 29.8643 12.4731 33.8832H9.19703ZM9.55047 18.5087C10.835 15.3933 12.6214 12.5095 14.8384 9.97178L15.0016 9.79506C16.3538 8.28475 17.9536 7.01596 19.7322 6.04319C22.3201 4.71041 25.1595 3.93693 28.0659 3.77299C30.9723 3.60905 33.8806 4.05833 36.602 5.09163C39.1891 6.11288 41.5024 7.72333 43.3581 9.79506L43.5212 9.97178C45.7383 12.5095 47.5246 15.3933 48.8092 18.5087H45.2477C43.7224 15.5634 41.417 13.0941 38.5832 11.3704C35.7495 9.64679 32.4966 8.73516 29.1798 8.73516C25.8631 8.73516 22.6101 9.64679 19.7764 11.3704C16.9427 13.0941 14.6373 15.5634 13.112 18.5087H9.55047ZM13.7781 26.8552C13.7756 24.6874 14.2307 22.5435 15.1137 20.5637C15.9967 18.5839 17.2877 16.8128 18.9022 15.3662C20.5168 13.9196 22.4185 12.8302 24.483 12.1691C26.5476 11.508 28.7284 11.2902 30.8829 11.5299C33.0374 11.7697 35.1171 12.4615 36.9858 13.5602C38.8545 14.6589 40.4703 16.1397 41.7274 17.9057C42.9845 19.6718 43.8546 21.6834 44.2809 23.8088C44.7071 25.9343 44.6799 28.1258 44.2009 30.2401H39.6606C39.3817 29.4458 38.8631 28.7577 38.1765 28.2707C37.4899 27.7837 36.669 27.5219 35.8272 27.5213H31.7491C30.6675 27.5213 29.6302 27.951 28.8654 28.7158C28.1006 29.4806 27.6709 30.5179 27.6709 31.5994C27.6709 32.681 28.1006 33.7183 28.8654 34.4831C29.6302 35.2479 30.6675 35.6776 31.7491 35.6776H35.8272C36.669 35.677 37.4899 35.4151 38.1765 34.9282C38.8631 34.4412 39.3817 33.7531 39.6606 32.9588H43.3173C41.9129 36.2118 39.4297 38.881 36.2864 40.5163C33.1431 42.1517 29.5321 42.6532 26.0622 41.9362C22.5923 41.2192 19.4757 39.3276 17.238 36.5804C15.0003 33.8332 13.7783 30.3984 13.7781 26.8552ZM37.1866 31.5858V31.613C37.1858 31.7907 37.1501 31.9665 37.0814 32.1303C37.0126 32.2942 36.9123 32.4429 36.786 32.5679C36.6597 32.6929 36.51 32.7917 36.3455 32.8588C36.181 32.9259 36.0049 32.9599 35.8272 32.9588H31.7491C31.3885 32.9588 31.0428 32.8156 30.7878 32.5607C30.5329 32.3057 30.3897 31.96 30.3897 31.5994C30.3897 31.2389 30.5329 30.8931 30.7878 30.6382C31.0428 30.3833 31.3885 30.2401 31.7491 30.2401H35.8272C36.0049 30.239 36.181 30.273 36.3455 30.3401C36.51 30.4071 36.6597 30.506 36.786 30.631C36.9123 30.756 37.0126 30.9047 37.0814 31.0685C37.1501 31.2324 37.1858 31.4082 37.1866 31.5858ZM54.6409 75.7791H3.71875V69.7163C3.72882 63.1578 6.33864 56.8708 10.9762 52.2332C15.6138 47.5956 21.9008 44.9858 28.4594 44.9757H29.9003C36.4588 44.9858 42.7459 47.5956 47.3835 52.2332C52.021 56.8708 54.6309 63.1578 54.6409 69.7163V75.7791Z" fill="#60A401"/>
<path d="M36.9419 43.2085C40.0042 41.7455 42.598 39.4576 44.432 36.6019H49.1627C50.2068 36.5405 51.1843 36.0688 51.8821 35.2896C52.5798 34.5103 52.9412 33.4868 52.8873 32.4423V22.6683C52.889 22.153 52.7969 21.6417 52.6155 21.1594V21.1322C51.2284 16.3476 48.8163 11.9224 45.5467 8.16381L45.37 7.95991C43.2281 5.58639 40.5671 3.73951 37.5944 2.56319C34.5038 1.37001 31.1942 0.849818 27.8866 1.03735C24.579 1.22488 21.3495 2.11582 18.4136 3.65069C16.3808 4.77883 14.5482 6.23481 12.9897 7.95991L12.813 8.16381C9.54341 11.9224 7.13131 16.3476 5.74422 21.1322V21.1594C5.5628 21.6417 5.47067 22.153 5.47234 22.6683V32.4423C5.41851 33.4868 5.77986 34.5103 6.4776 35.2896C7.17534 36.0688 8.15287 36.5405 9.19703 36.6019H13.9277C15.7617 39.4576 18.3555 41.7455 21.4178 43.2085C15.5725 44.7655 10.4038 48.2067 6.71248 52.999C3.02117 57.7913 1.01332 63.6672 1 69.7163V77.1385C1 77.499 1.14322 77.8448 1.39815 78.0997C1.65308 78.3547 1.99885 78.4979 2.35938 78.4979H56.0003C56.3608 78.4979 56.7066 78.3547 56.9615 78.0997C57.2165 77.8448 57.3597 77.499 57.3597 77.1385V69.7163C57.3464 63.6672 55.3385 57.7913 51.6472 52.999C47.9559 48.2067 42.7872 44.7655 36.9419 43.2085ZM50.1686 22.6683V32.4423C50.1686 33.2035 49.6928 33.8832 49.1627 33.8832H45.8866C46.1177 33.3123 46.3352 32.7277 46.5119 32.1296C46.5119 32.116 46.5119 32.116 46.5255 32.1024C47.6031 28.5502 47.5557 24.7516 46.3895 21.2274H49.1627C49.6928 21.2274 50.1686 21.9071 50.1686 22.6683ZM9.19703 33.8832C8.66687 33.8832 8.19109 33.2035 8.19109 32.4423V22.6683C8.19109 21.9071 8.66687 21.2274 9.19703 21.2274H11.9702C10.6015 25.368 10.7802 29.8643 12.4731 33.8832H9.19703ZM9.55047 18.5087C10.835 15.3933 12.6214 12.5095 14.8384 9.97178L15.0016 9.79506C16.3538 8.28475 17.9536 7.01596 19.7322 6.04319C22.3201 4.71041 25.1595 3.93693 28.0659 3.77299C30.9723 3.60905 33.8806 4.05833 36.602 5.09163C39.1891 6.11288 41.5024 7.72333 43.3581 9.79506L43.5212 9.97178C45.7383 12.5095 47.5246 15.3933 48.8092 18.5087H45.2477C43.7224 15.5634 41.417 13.0941 38.5832 11.3704C35.7495 9.64679 32.4966 8.73516 29.1798 8.73516C25.8631 8.73516 22.6101 9.64679 19.7764 11.3704C16.9427 13.0941 14.6373 15.5634 13.112 18.5087H9.55047ZM13.7781 26.8552C13.7756 24.6874 14.2307 22.5435 15.1137 20.5637C15.9967 18.5839 17.2877 16.8128 18.9022 15.3662C20.5168 13.9196 22.4185 12.8302 24.483 12.1691C26.5476 11.508 28.7284 11.2902 30.8829 11.5299C33.0374 11.7697 35.1171 12.4615 36.9858 13.5602C38.8545 14.6589 40.4703 16.1397 41.7274 17.9057C42.9845 19.6718 43.8546 21.6834 44.2809 23.8088C44.7071 25.9343 44.6799 28.1258 44.2009 30.2401H39.6606C39.3817 29.4458 38.8631 28.7577 38.1765 28.2707C37.4899 27.7837 36.669 27.5219 35.8272 27.5213H31.7491C30.6675 27.5213 29.6302 27.951 28.8654 28.7158C28.1006 29.4806 27.6709 30.5179 27.6709 31.5994C27.6709 32.681 28.1006 33.7183 28.8654 34.4831C29.6302 35.2479 30.6675 35.6776 31.7491 35.6776H35.8272C36.669 35.677 37.4899 35.4151 38.1765 34.9282C38.8631 34.4412 39.3817 33.7531 39.6606 32.9588H43.3173C41.9129 36.2118 39.4297 38.881 36.2864 40.5163C33.1431 42.1517 29.5321 42.6532 26.0622 41.9362C22.5923 41.2192 19.4757 39.3276 17.238 36.5804C15.0003 33.8332 13.7783 30.3984 13.7781 26.8552ZM37.1866 31.5858V31.613C37.1858 31.7907 37.1501 31.9665 37.0814 32.1303C37.0126 32.2942 36.9123 32.4429 36.786 32.5679C36.6597 32.6929 36.51 32.7917 36.3455 32.8588C36.181 32.9259 36.0049 32.9599 35.8272 32.9588H31.7491C31.3885 32.9588 31.0428 32.8156 30.7878 32.5607C30.5329 32.3057 30.3897 31.96 30.3897 31.5994C30.3897 31.2389 30.5329 30.8931 30.7878 30.6382C31.0428 30.3833 31.3885 30.2401 31.7491 30.2401H35.8272C36.0049 30.239 36.181 30.273 36.3455 30.3401C36.51 30.4071 36.6597 30.506 36.786 30.631C36.9123 30.756 37.0126 30.9047 37.0814 31.0685C37.1501 31.2324 37.1858 31.4082 37.1866 31.5858ZM54.6409 75.7791H3.71875V69.7163C3.72882 63.1578 6.33864 56.8708 10.9762 52.2332C15.6138 47.5956 21.9008 44.9858 28.4594 44.9757H29.9003C36.4588 44.9858 42.7459 47.5956 47.3835 52.2332C52.021 56.8708 54.6309 63.1578 54.6409 69.7163V75.7791Z" stroke="#60A401" mask="url(#path-1-outside-1_39_341)"/>
</svg>
