<svg width="73" height="73" viewBox="0 0 73 73" fill="none" xmlns="http://www.w3.org/2000/svg">
<path d="M70.5547 30.8999L36.2774 9.27197L2.00002 30.8999" stroke="#60A401" stroke-width="4" stroke-linecap="round" stroke-linejoin="round"/>
<path d="M60.8354 24.7668V70.1954H11.7193V24.7668" stroke="#60A401" stroke-width="4" stroke-linecap="round" stroke-linejoin="round"/>
<path d="M55.7897 21.5842V2H43.6267V13.9086" stroke="#60A401" stroke-width="4" stroke-linecap="round" stroke-linejoin="round"/>
<path d="M27.7172 49.8465C27.7154 54.5734 31.5486 58.4066 36.2755 58.4085C41.0025 58.4103 44.8356 54.5771 44.8375 49.8502C44.8393 45.1232 41.0062 41.2901 36.2792 41.2882H36.2774C31.5504 41.2882 27.7172 37.455 27.7172 32.7281C27.7172 28.0011 31.5504 24.168 36.2774 24.168C41.0043 24.168 44.8375 28.0011 44.8375 32.7281" stroke="#60A401" stroke-width="4" stroke-linecap="round" stroke-linejoin="round"/>
<path d="M36.2774 62.516V20.0601" stroke="#60A401" stroke-width="4" stroke-linecap="round" stroke-linejoin="round"/>
</svg>
